<?xml version="1.0" encoding="utf-8"?>
<!-- Generator: Adobe Illustrator 24.1.1, SVG Export Plug-In . SVG Version: 6.00 Build 0)  -->
<svg version="1.1" id="레이어_1" xmlns="http://www.w3.org/2000/svg" xmlns:xlink="http://www.w3.org/1999/xlink" x="0px"
	 y="0px" viewBox="0 0 1000 1000" style="enable-background:new 0 0 1000 1000;" xml:space="preserve">
<style type="text/css">
	.st0{fill:#FFFFFF;stroke:#000000;stroke-miterlimit:10;}
</style>
<g>
	<path class="st0" d="M237.81,450.54l-5.5-10.5l4-12l9-13c0,0,3.5-3.5,8.5,0.5l7,7l10,7l2,6l14,13l12,14l14,11l5,6c0,0,27-2,29-5
		s10-19,10-19s1-6,6-4c0,0,1-4,5,0c0,0,17,10,19-7l1-21v-15c0,0,9-15,10-21s-6-15-2-17s8,0,8,0l3-13c0,0,0-8,9-7c0,0,7-4,13-3
		c0,0,11-2,14-13c0,0,3-5,6-3c0,0,6-18,14-2c0,0,3,5,8,2c0,0,6-2,4,10c0,0,9,7,7,20l-3,16c0,0,7,3,12-1c0,0,8-8,12-5c0,0,9-9,10-8
		c0,0,2-18,0-20c0,0-13-11-1-17l4-4c0,0-5-7,12-12c0,0-4-5,3-11c0,0-10-11,0-17c0,0,2-9,18-3v-13c0,0-2-8,7-12c0,0-6-14,7-9l12,3
		c0,0,5,1,7,2s2,9,4,9c0,0,4,7,11-2c0,0,3-3,7,3c0,0,11-10,11,16c0,0,4,0,4-10c0,0,1-3,8-2c0,0,1-7,17-4c0,0,13-11,20,3l10,5
		c0,0,8-4,6,8l-3,5c0,0-5,3,0,14c0,0,9,9-2,18c0,0-1,21,1,27c0,0,2,16,16,12c0,0,9-5,12,9l2,14c0,0,5,6-6,7v9l-4,6l10,1
		c0,0,13-2,8,8l-1,8l2,14c0,0-8,1-3,12c0,0,6,9-4,11l-3,11c0,0-3,5-11,10l-3,9v21c0,0-3,13,9,11c0,0-5-10,27-27c0,0,11-6,23-4
		c0,0,42-34,50-29s9,14,9,14l-7,5v14c0,0,0,18,7,18l2,28c0,0,1,13-13,4c0,0-20-2-25,13l-11,26c0,0-3,6-6,7l-4,11c0,0,0,6-5,11
		c0,0-2,15,13,12c0,0,6-6,16,4c0,0,4,0,1,14c0,0-5,14-15,14c0,0,1,21-14,19l-4,5l-9-4l-1,5l3,3v3l-6,4h-7l-3,6h-6c0,0,2,17-13,6
		l-7-3l-4,7l-21,14c0,0,3,24-22,15c0,0-9-1-4,11c0,0-1,20-13,12c0,0-12,2-13,4c0,0-14-3-12-13l-8-2c0,0-12,1-6-18c0,0-5,1-2-18
		c0,0-5-8-4-15c0,0-9-8-8,7l-11,8c0,0-22,7-21-11l-3-10h-11c0,0-5,0-3,10c0,0-5,6-11,6l-13,6c0,0-1,3-9,3c0,0-6,13-12,13l-2,7
		c0,0,2,7-7,7c0,0-8,1-14,0c0,0-10,2-10,5c0,0-12,3-9-9l-8-5c0,0-2-3-3-10l-4-2l-9,17c0,0-2,7-11,4c0,0-8-2-6,8c0,0,1,10-13-7
		c0,0-8-1-6-24c0,0-5-5-10-6c0,0-8,2-6-15c0,0,2-2-5-12l-13-24c0,0-5-5,4-10l-11-13l-9,4l-15,14c0,0,0,6-10,5v9c0,0,0,11-10,4
		c0,0-19-9-30,0c0,0-9,1-4-11l3-7c0,0,0-7,5-7c0,0-1-10-15-15c0,0-3-4,8-6c11-2,9-30,9-30s-1-6,4-10c0,0,5-30-9-34c0,0-12-2-12-9
		c0,0-26-6-25,12c0,0-10,6-7-18c0,0-13-8-33-6c0,0-6-21,5-21c0,0-3-14,7-14c0,0-1-5,9-4l11-13c0,0,0-10,7-9
		C229.81,466.54,230.31,454.04,237.81,450.54z"/>
	<circle cx="528.26" cy="501.07" r="10.62"/>
</g>
</svg>
