<?xml version="1.0" encoding="utf-8"?>
<!-- Generator: Adobe Illustrator 24.1.1, SVG Export Plug-In . SVG Version: 6.00 Build 0)  -->
<svg version="1.1" id="레이어_1" xmlns="http://www.w3.org/2000/svg" xmlns:xlink="http://www.w3.org/1999/xlink" x="0px"
	 y="0px" viewBox="0 0 1000 1000" style="enable-background:new 0 0 1000 1000;" xml:space="preserve">
<path d="M721.5,440.41c-9.94,0-18,8.06-18,18v20.08h-21.76c-4.18-35.73-18.65-68.32-40.37-94.72l17.58-17.58l14.2,14.2
	c3.51,3.52,8.12,5.27,12.73,5.27c4.61,0,9.21-1.76,12.73-5.27c7.03-7.03,7.03-18.43,0-25.46l-53.86-53.86
	c-7.03-7.03-18.43-7.03-25.46,0c-7.03,7.03-7.03,18.43,0,25.46l14.2,14.2l-17.62,17.62c-27.2-22.28-60.92-36.87-97.87-40.48V293
	h20.08c9.94,0,18-8.06,18-18s-8.06-18-18-18h-76.17c-9.94,0-18,8.06-18,18s8.06,18,18,18H482v24.88
	c-35.79,3.49-68.56,17.3-95.3,38.41l-15.54-15.54l13.89-13.89c7.03-7.03,7.03-18.43,0-25.46c-7.03-7.03-18.43-7.03-25.46,0
	l-53.86,53.86c-7.03,7.03-7.03,18.43,0,25.46c3.51,3.51,8.12,5.27,12.73,5.27s9.21-1.76,12.73-5.27l14.51-14.51l15.06,15.06
	c-22.9,26.83-38.18,60.35-42.5,97.23H296.5v-19.65c0-9.94-8.06-18-18-18s-18,8.06-18,18v76.17c0,9.94,8.06,18,18,18s18-8.06,18-18
	V514.5h21.07c3,38.32,17.81,73.32,40.79,101.38l-17.62,17.62l-13.89-13.89c-7.03-7.03-18.43-7.03-25.46,0s-7.03,18.43,0,25.46
	l53.86,53.86c3.52,3.52,8.12,5.27,12.73,5.27s9.21-1.76,12.73-5.27c7.03-7.03,7.03-18.43,0-25.46l-14.51-14.51l17.58-17.58
	c27.26,22.43,61.11,37.13,98.22,40.76V707h-19.65c-9.94,0-18,8.06-18,18s8.06,18,18,18h76.17c9.94,0,18-8.06,18-18s-8.06-18-18-18
	H518v-24.88c38.26-3.74,73.06-19.25,100.74-42.88l14.75,14.75l-14.2,14.2c-7.03,7.03-7.03,18.43,0,25.46
	c3.51,3.52,8.12,5.27,12.73,5.27s9.21-1.76,12.73-5.27l53.86-53.86c7.03-7.03,7.03-18.43,0-25.46c-7.03-7.03-18.42-7.03-25.46,0
	l-14.2,14.2l-15.23-15.23c21.8-27.61,35.81-61.65,38.72-98.8h21.07v20.08c0,9.94,8.06,18,18,18s18-8.06,18-18v-76.17
	C739.5,448.47,731.44,440.41,721.5,440.41z"/>
</svg>
